<svg width="14" height="12" viewBox="0 0 14 12" fill="none" xmlns="http://www.w3.org/2000/svg">
<path d="M13.25 1C13.25 0.654825 12.9702 0.375 12.625 0.375H1.375C1.02982 0.375 0.75 0.654825 0.75 1V11C0.75 11.3452 1.02982 11.625 1.375 11.625H12.625C12.9702 11.625 13.25 11.3452 13.25 11V1ZM2 7.875H4.13502C4.61725 8.97869 5.71855 9.75 7 9.75C8.28144 9.75 9.38275 8.97869 9.865 7.875H12V10.375H2V7.875ZM2 1.625H12V6.625H8.875C8.875 7.66056 8.03556 8.5 7 8.5C5.96444 8.5 5.125 7.66056 5.125 6.625H2V1.625ZM9.5 5.375H7.625V7.25H6.375V5.375H4.5L7 2.5625L9.5 5.375Z" fill="white"/>
</svg>
