<svg width="22" height="20" viewBox="0 0 22 20" fill="none" xmlns="http://www.w3.org/2000/svg">
<path d="M9.86388 7.65458C10.0401 7.1537 10.3879 6.73135 10.8456 6.46232C11.3034 6.19329 11.8416 6.09495 12.3649 6.18471C12.8882 6.27447 13.3629 6.54655 13.7048 6.95275C14.0468 7.35895 14.2339 7.87306 14.2331 8.40402C14.2331 9.9029 11.9848 10.6523 11.9848 10.6523M12.0138 13.6523H12.0238M11.8639 18.6523C16.5583 18.6523 20.3639 14.8468 20.3639 10.1523C20.3639 5.45792 16.5583 1.65234 11.8639 1.65234C7.16946 1.65234 3.36388 5.45792 3.36388 10.1523C3.36388 11.1023 3.51973 12.0159 3.80725 12.869C3.91545 13.19 3.96955 13.3505 3.97931 13.4738C3.98895 13.5955 3.98166 13.6809 3.95154 13.7993C3.92103 13.9192 3.85368 14.0438 3.71898 14.2932L2.08332 17.3207C1.85001 17.7525 1.73335 17.9685 1.75946 18.1351C1.7822 18.2803 1.86763 18.4081 1.99306 18.4846C2.13706 18.5724 2.38118 18.5472 2.86942 18.4967L7.99045 17.9674C8.14553 17.9513 8.22307 17.9433 8.29374 17.946C8.36326 17.9487 8.41233 17.9552 8.48011 17.9708C8.54904 17.9867 8.6357 18.0201 8.80904 18.0869C9.75709 18.4521 10.7871 18.6523 11.8639 18.6523Z" stroke="white" stroke-width="2" stroke-linecap="round" stroke-linejoin="round"/>
</svg>
