<svg width="18" height="15" viewBox="0 0 18 15" fill="none" xmlns="http://www.w3.org/2000/svg">
<path d="M14.25 14.75H3.75C3.55109 14.75 3.36032 14.671 3.21967 14.5303C3.07902 14.3897 3 14.1989 3 14V7.25H0.75L8.49525 0.209001C8.63333 0.0833594 8.81331 0.0137329 9 0.0137329C9.18669 0.0137329 9.36667 0.0833594 9.50475 0.209001L17.25 7.25H15V14C15 14.1989 14.921 14.3897 14.7803 14.5303C14.6397 14.671 14.4489 14.75 14.25 14.75ZM9.75 13.25H13.5V5.86775L9 1.77725L4.5 5.86775V13.25H8.25V8.75H9.75V13.25Z" fill="white"/>
</svg>
