<svg width="16" height="14" viewBox="0 0 16 14" fill="none" xmlns="http://www.w3.org/2000/svg">
<path d="M2 12.25V1.75H6.18934L7.68935 3.25H14V12.25H2ZM14.75 1.75H8.31065L6.81065 0.25H1.25C0.83579 0.25 0.5 0.58579 0.5 1V13C0.5 13.4142 0.83579 13.75 1.25 13.75H14.75C15.1642 13.75 15.5 13.4142 15.5 13V2.5C15.5 2.08579 15.1642 1.75 14.75 1.75ZM10.2506 7.50025L6.59142 5.06076C6.54215 5.0279 6.48425 5.01038 6.425 5.01038C6.25932 5.01038 6.125 5.14469 6.125 5.31038V10.1893C6.125 10.2485 6.14255 10.3064 6.1754 10.3557C6.26727 10.4936 6.45357 10.5308 6.59142 10.4389L10.2506 7.99945C10.2835 7.97747 10.3118 7.9492 10.3338 7.91628C10.4257 7.77842 10.3884 7.59212 10.2506 7.50025Z" fill="white"/>
</svg>
