<svg width="58" height="16" viewBox="0 0 58 16" fill="none" xmlns="http://www.w3.org/2000/svg">
<path d="M1.83617 8.33537C1.83617 9.09443 2.11159 9.74301 2.6701 10.2736C3.22095 10.8117 3.89421 11.0769 4.68223 11.0769C5.24073 11.0769 5.74568 10.9369 6.20472 10.6495C6.66376 10.3694 7.00802 9.99354 7.23755 9.53665H9.19612C8.92074 10.4947 8.36221 11.2907 7.53593 11.9097C6.70202 12.5361 5.75333 12.8457 4.68223 12.8457C3.38161 12.8457 2.27991 12.4109 1.36948 11.5265C0.451391 10.6495 0 9.58822 0 8.33537C0 7.09718 0.451391 6.03595 1.36948 5.15152C2.27991 4.26716 3.38161 3.82497 4.68223 3.82497C5.75333 3.82497 6.70202 4.14187 7.53593 4.76827C8.36221 5.39477 8.92074 6.18332 9.19612 7.134H7.23755C7.00802 6.67711 6.66376 6.30862 6.20472 6.0212C5.74568 5.74111 5.24073 5.59373 4.68223 5.59373C3.89421 5.59373 3.22095 5.86641 2.6701 6.40443C2.11159 6.94238 1.83617 7.58365 1.83617 8.33537ZM15.0565 11.0769C15.8369 11.0769 16.5026 10.8117 17.061 10.2736C17.6119 9.74301 17.895 9.09443 17.895 8.33537C17.895 7.58365 17.6119 6.94238 17.061 6.40443C16.5026 5.86641 15.8369 5.59373 15.0565 5.59373C14.2609 5.59373 13.5876 5.86641 13.0368 6.40443C12.486 6.94238 12.2105 7.58365 12.2105 8.33537C12.2105 9.09443 12.486 9.74301 13.0368 10.2736C13.5876 10.8117 14.2609 11.0769 15.0565 11.0769ZM15.0565 3.82497C16.3419 3.82497 17.4436 4.26716 18.3617 5.15152C19.2798 6.03595 19.7388 7.09718 19.7388 8.33537C19.7388 9.58822 19.2798 10.6495 18.3617 11.5265C17.4436 12.4109 16.3419 12.8457 15.0565 12.8457C13.756 12.8457 12.6543 12.4109 11.7438 11.5265C10.8257 10.6495 10.3743 9.58822 10.3743 8.33537C10.3743 7.09718 10.8257 6.03595 11.7438 5.15152C12.6543 4.26716 13.756 3.82497 15.0565 3.82497ZM20.917 3.89867H22.7532V5.38003C23.1969 4.70937 23.9008 4.27453 24.8571 4.08291C25.8058 3.89129 26.6703 3.95025 27.4507 4.26716C28.277 4.62089 28.9503 5.16625 29.4782 5.90323C30.006 6.64762 30.2739 7.48043 30.2739 8.40902C30.2739 9.33762 30.006 10.1778 29.4782 10.9148C28.9503 11.6592 28.277 12.2045 27.4507 12.5435C26.6703 12.8678 25.8058 12.9341 24.8571 12.7425C23.9008 12.5509 23.1969 12.1087 22.7532 11.4307V12.6614V12.912V14.3049V15.6978V16H20.9093V15.6978V14.3049V12.912V12.6614V8.40902V3.89867H20.917ZM22.7532 8.18791V8.6228C22.8068 9.33029 23.1052 9.92722 23.6483 10.4137C24.1915 10.9001 24.8418 11.1432 25.5916 11.1432C26.3719 11.1432 27.0376 10.878 27.5961 10.3474C28.1546 9.81666 28.4377 9.16816 28.4377 8.40902C28.4377 7.6573 28.1546 7.00878 27.5961 6.47075C27.0376 5.94014 26.3719 5.66745 25.5916 5.66745C24.8418 5.66745 24.1915 5.91798 23.6483 6.40443C23.1052 6.89081 22.8068 7.48784 22.7532 8.18791ZM35.9277 10.6348L38.7585 4.15661L38.8732 3.89867H40.8624L40.7323 4.20083L37.542 11.5117L36.9223 12.912L35.7135 15.6978H33.7166L34.9331 12.912L34.3211 11.5117L31.1307 4.20083L31.0006 3.89867H32.9898L33.1046 4.15661L35.9277 10.6348ZM44.8178 3.19852V3.85445H45.9807H47.289V5.62322H45.9807H44.8178V9.12392V10.0083V12.8457H42.9893V5.62322H41.9794H41.7269V3.85445H41.9794H42.9893V2.85214C42.9893 1.9825 43.2724 1.28972 43.8538 0.773832C44.4353 0.25795 45.1927 0 46.1338 0H47.289V1.7614C47.1283 1.7614 47.0289 1.76877 46.983 1.76877H46.0725C45.4605 1.76877 45.0933 1.94565 44.9861 2.28466C44.8713 2.63104 44.8178 2.93321 44.8178 3.19852ZM53.0653 10.6348L55.896 4.15661L56.0108 3.89867H58L57.8699 4.20083L54.6796 11.5117L54.0598 12.912L52.851 15.6978H50.8542L52.0707 12.912L51.4586 11.5117L48.2683 4.20083L48.1382 3.89867H50.1274L50.2422 4.15661L53.0653 10.6348Z" fill="white"/>
</svg>
